:SAMPLES-PER-SECOND 30
:FULLY-SPECIFIED
:DEGREES
140
root  -42.3104 39.0997 -30.113 165.293 67.2905 164.244
RightUpLeg  -20.3899 -4.56941 0.557256
RightLeg  -2.86037 -27.804 8.68507
RightFoot  -2.52517 0.274038 -3.7135
RightToes  -4.65663e-010 0 -3.6325e-017
Spine  8.44741 -3.30735 -3.33278
Spine1  7.06018 -4.31745 2.15767
HEad  -14.1082 -6.84963 0.390529
LeftShoulder1  7.87944 -11.5746 -45.5517
LeftArm  -18.2605 0.751667 -15.833
LeftForeArm  18.8646 -18.7516 -3.56005
LeftHand  -0.244104 0.0205437 5.32207
RightShoulder  5.42771 8.4233 39.3998
RightArm  -10.8798 -25.7181 35.2119
RightForeArm  12.4316 8.16152 5.56964
RightHand  -0.781347 0.264409 -16.0716
LeftUpLeg  19.6238 7.72021 -1.13595
LeftLeg  7.7247 20.4867 -4.99145
LeftFoot  -13.9459 -0.230641 -13.6866
LeftToes  -7.27628e-011 -1.6005e-012 -1.37987e-011
141
root  -40.8537 38.9969 -31.0235 168.122 68.1113 167.675
RightUpLeg  -21.7061 -6.66137 2.76344
RightLeg  5.37328 -26.8955 5.30851
RightFoot  -1.08443 0.841674 -9.40987
RightToes  -4.65663e-010 0 -3.6325e-017
Spine  7.65122 -3.63039 -0.0924219
Spine1  7.71403 -4.51323 2.05891
HEad  -13.0886 -7.09691 -0.665006
LeftShoulder1  7.94542 -11.5681 -45.9659
LeftArm  -17.7562 1.52956 -16.7687
LeftForeArm  19.8316 -22.4814 -3.85358
LeftHand  -0.244104 0.0205437 5.32207
RightShoulder  5.44897 8.42706 39.5552
RightArm  -10.0038 -25.1507 34.5043
RightForeArm  13.459 8.64228 5.70064
RightHand  -0.814291 0.573677 -15.8994
LeftUpLeg  22.1687 14.5907 3.87694
LeftLeg  10.7045 12.1761 -3.95235
LeftFoot  -12.503 -0.0975934 -17.6568
LeftToes  -7.27628e-011 -1.6005e-012 -1.37987e-011
142
root  -39.3638 38.9646 -31.8865 171.69 69.897 171.846
RightUpLeg  -22.8058 -11.9343 7.13991
RightLeg  12.2562 -20.3276 1.6062
RightFoot  -0.38096 1.32322 -13.795
RightToes  -4.65663e-010 0 -3.6325e-017
Spine  7.02994 -3.63117 3.66211
Spine1  7.83707 -4.21548 1.66717
HEad  -11.6725 -6.96643 -1.62427
LeftShoulder1  8.04419 -11.5791 -46.5196
LeftArm  -17.7592 3.79617 -18.0701
LeftForeArm  22.1835 -26.9063 -4.58628
LeftHand  -0.244104 0.0205437 5.32207
RightShoulder  5.55639 8.58953 39.8166
RightArm  -9.43511 -23.8941 33.4963
RightForeArm  13.8144 8.67081 5.7544
RightHand  -0.853373 0.806294 -16.048
LeftUpLeg  23.6078 25.7448 11.0044
LeftLeg  16.8356 0.318587 -1.09458
LeftFoot  -8.41668 0.639405 -22.1367
LeftToes  -7.27628e-011 -1.6005e-012 -1.37987e-011
143
root  -37.924 39.0023 -32.6438 175.143 72.4593 175.76
RightUpLeg  -22.9166 -15.625 10.8584
RightLeg  16.7284 -13.855 -0.800569
RightFoot  -1.74855 1.28209 -15.2863
RightToes  -4.65663e-010 0 -3.6325e-017
Spine  6.98598 -3.26827 6.74669
Spine1  7.51985 -3.48198 1.3436
HEad  -10.1857 -6.55871 -1.99071
LeftShoulder1  8.04428 -11.5276 -46.6829
LeftArm  -17.6605 6.79949 -20.0756
LeftForeArm  24.7144 -31.2719 -5.46289
LeftHand  -0.244104 0.0205437 5.32207
RightShoulder  5.6864 8.83235 39.9592
RightArm  -9.62428 -21.6166 32.9208
RightForeArm  13.3034 8.28813 5.70698
RightHand  -0.890851 0.91314 -16.4649
LeftUpLeg  19.7934 25.0952 11.7915
LeftLeg  26.7917 1.48815 1.45648
LeftFoot  0.613086 2.25792 -21.9358
LeftToes  -7.27628e-011 -1.6005e-012 -1.37987e-011
144
root  -36.6306 38.983 -33.2571 179.201 74.5918 -179.941
RightUpLeg  -22.2317 -16.9851 12.8533
RightLeg  20.0259 -10.4651 -2.04851
RightFoot  -4.41741 0.876087 -14.8467
RightToes  -4.65663e-010 0 -3.6325e-017
Spine  7.26947 -2.99968 8.87487
Spine1  7.36424 -2.87758 1.52363
HEad  -8.93257 -6.35505 -1.60247
LeftShoulder1  7.99634 -11.4841 -46.5359
LeftArm  -17.017 9.73508 -22.2629
LeftForeArm  26.7943 -35.2097 -6.33211
LeftHand  -0.244104 0.0205437 5.32207
RightShoulder  5.78866 9.0247 40.062
RightArm  -10.1763 -18.4018 32.9241
RightForeArm  11.919 8.3298 5.70102
RightHand  -0.976449 1.2794 -17.0582
LeftUpLeg  12.1945 20.2741 10.0823
LeftLeg  39.2756 3.58284 3.42096
LeftFoot  11.5288 3.11201 -15.7198
LeftToes  -7.27628e-011 -1.6005e-012 -1.37987e-011
